<?xml version="1.0" encoding="UTF-8" standalone="no"?>
<svg width="30px" height="30px" viewBox="0 0 30 30" version="1.1" xmlns="http://www.w3.org/2000/svg" xmlns:xlink="http://www.w3.org/1999/xlink">
    <!-- Generator: Sketch 42 (36781) - http://www.bohemiancoding.com/sketch -->
    <title>Logo</title>
    <desc>Created with Sketch.</desc>
    <defs></defs>
    <g id="Page-1" stroke="none" stroke-width="1" fill="none" fill-rule="evenodd">
        <g id="v22" transform="translate(-60.000000, -40.000000)" fill="#5B5D62">
            <g id="header" transform="translate(60.000000, 40.000000)">
                <g id="Logo">
                    <path d="M9.702079,6.89887383 C9.702079,3.01942081 8.71413721,0.959627537 6.22432432,0.959627537 L5.67110187,0.959627537 C5.43409563,0.959627537 5.35488565,1.01971362 5.35488565,1.25963632 L5.35488565,12.7778232 C5.35488565,13.0377746 5.43409563,13.0976498 5.69085239,13.0976498 L6.18482328,13.0976498 C8.45738046,13.0976498 9.702079,11.1780575 9.702079,6.89887383 L9.702079,6.89887383 Z M0,14.0575515 L0,13.7577535 L1.38316008,12.3979105 C1.5016632,12.2579204 1.52141372,12.1980452 1.52141372,11.9981798 L1.52141372,2.05973002 C1.52141372,1.85986472 1.5016632,1.7995678 1.38316008,1.65957776 L0,0.299945536 L0,-6.3248514e-05 L6.93575884,-6.3248514e-05 C11.65842,-6.3248514e-05 14.0097713,2.53957542 14.0097713,6.75888378 C14.0097713,11.5980276 10.8877339,14.0575515 6.402079,14.0575515 L0,14.0575515 Z" id="Fill-1"></path>
                    <path d="M5.35484407,27.6580481 C5.35484407,27.8579134 5.39434511,27.9177886 5.51305613,28.0577787 L6.89621622,29.4176217 L6.89621622,29.7178414 L-4.15800414e-05,29.7178414 L-4.15800414e-05,29.4176217 L1.3831185,28.0577787 C1.50182952,27.9177886 1.52178794,27.8579134 1.52178794,27.6580481 L1.52178794,17.7195983 C1.52178794,17.519733 1.50182952,17.4598577 1.3831185,17.3198676 L-4.15800414e-05,15.9600246 L-4.15800414e-05,15.6600158 L6.89621622,15.6600158 L6.89621622,15.9600246 L5.51305613,17.3198676 C5.39434511,17.4598577 5.35484407,17.519733 5.35484407,17.7195983 L5.35484407,22.619039 L9.28706861,18.3196158 C9.4845738,18.099511 9.46503119,17.9993675 9.34632017,17.799713 L8.20058212,15.9600246 L8.20058212,15.6600158 L14.1282328,15.6600158 L14.1282328,15.9600246 L11.4409148,17.8197417 C10.8681497,18.1996545 10.7296881,18.3196158 10.2947609,18.7794325 L8.575842,20.619121 L12.7845738,27.737952 C13.0413306,28.1579222 13.1797921,28.3179409 13.4762578,28.597921 L14.444657,29.4176217 L14.444657,29.7178414 L9.72199584,29.7178414 L5.35484407,22.619039 L5.35484407,27.6580481 Z" id="Fill-6"></path>
                    <path d="M22.1308108,18.4795924 C22.1308108,17.0598741 21.3800832,16.3997704 20.530395,16.3997704 C19.6017048,16.3997704 19.0085655,17.139778 19.0085655,18.1194975 C19.0085655,19.0793991 19.4829938,19.9992434 20.7476507,21.2990003 C21.7750936,20.5191461 22.1308108,19.4793406 22.1308108,18.4795924 L22.1308108,18.4795924 Z M18.3370478,23.5786876 C17.8229106,23.9784182 17.3883992,24.7985406 17.3883992,25.8583749 C17.3883992,27.3579971 18.5935967,28.4578888 19.9965073,28.4578888 C20.7671933,28.4578888 21.4985863,28.1779087 22.1308108,27.5979198 L18.3370478,23.5786876 Z M14.701289,26.6182003 C14.701289,24.8183585 15.9852807,23.5987163 17.8430769,23.0587848 C16.6376715,21.6991526 16.2619958,20.5391748 16.2619958,19.519398 C16.2619958,17.1197493 17.9813306,15.4601083 20.530395,15.4601083 C22.7434927,15.4601083 24.3044075,16.6396931 24.3044075,18.3596311 C24.3044075,20.0993868 22.7632432,21.1988568 21.3008732,21.8189031 L24.6601247,25.3783186 C24.9958836,24.9185019 25.2923493,24.4785031 25.549106,23.9784182 C25.6873597,23.7186776 25.7073181,23.5586589 25.5295634,23.3387649 L24.0079418,21.4590191 L24.0079418,21.179039 L28.9480665,21.179039 L28.9480665,21.4590191 L27.6439085,22.7986226 C27.2881913,23.1587175 27.0310187,23.4186689 26.7349688,23.9185429 C26.3397505,24.6385219 25.8457796,25.3382613 25.3120998,26.0384223 C26.1025364,26.8380943 26.6954678,27.2180071 27.3077339,27.2180071 C28.0391268,27.2180071 28.5133472,26.718133 28.6911019,25.8183175 L28.967817,25.8183175 C29.0665696,26.1982302 29.1060707,26.5380856 29.1060707,26.858123 C29.1060707,28.7578976 27.8414137,29.9376932 26.0430769,29.9376932 C24.897131,29.9376932 24.0276923,29.4378191 22.8815385,28.3178987 C21.7948441,29.3577043 20.5896466,29.9376932 18.8310187,29.9376932 C16.4792516,29.9376932 14.701289,28.5978788 14.701289,26.6182003 L14.701289,26.6182003 Z" id="Fill-9"></path>
                    <path d="M14.2271518,17.6570876 L14.1283992,17.3370502 C15.3735135,16.5371673 16.1637422,15.4973617 16.1637422,14.4775848 C16.1637422,14.1976048 16.084948,14.0976721 15.8674844,14.037586 C14.7608316,13.7976633 14.3065696,13.0977131 14.3065696,12.2980411 C14.3065696,11.298082 15.0967983,10.4383239 16.1834927,10.4383239 C17.2504366,10.4383239 18.1200832,11.2382068 18.1200832,12.8179438 C18.1200832,15.1575064 16.53921,17.1772422 14.2271518,17.6570876" id="Fill-4"></path>
                </g>
            </g>
        </g>
    </g>
</svg>