<?xml version="1.0" encoding="UTF-8" standalone="no"?>
<svg width="24px" height="24px" viewBox="0 0 24 24" version="1.1" xmlns="http://www.w3.org/2000/svg" xmlns:xlink="http://www.w3.org/1999/xlink">
    <!-- Generator: Sketch 42 (36781) - http://www.bohemiancoding.com/sketch -->
    <title>icon_instagram_white@2x</title>
    <desc>Created with Sketch.</desc>
    <defs></defs>
    <g id="Page-1" stroke="none" stroke-width="1" fill="none" fill-rule="evenodd">
        <g id="v22" transform="translate(-664.000000, -8716.000000)" fill-rule="nonzero" fill="#FFFFFF">
            <g id="Footer" transform="translate(0.000000, 8350.000000)">
                <g id="Group" transform="translate(622.000000, 366.000000)">
                    <g id="icon_instagram_white" transform="translate(42.000000, 0.000000)">
                        <g id="Layer_1">
                            <path d="M12,0 C8.7421875,0 8.334375,0.0140625 7.0546875,0.0703125 C5.775,0.13125 4.9078125,0.3328125 4.14375,0.628125 C3.3515625,0.9375 2.68125,1.3453125 2.015625,2.015625 C1.35,2.68125 0.9375,3.3515625 0.6328125,4.1390625 C0.3375,4.903125 0.13125,5.775 0.075,7.05 C0.0140625,8.334375 0,8.7421875 0,12 C0,15.2578125 0.0140625,15.665625 0.0703125,16.9453125 C0.13125,18.225 0.3328125,19.096875 0.628125,19.85625 C0.9375,20.6484375 1.3453125,21.31875 2.015625,21.984375 C2.68125,22.65 3.3515625,23.0625 4.1390625,23.3671875 C4.903125,23.6625 5.775,23.86875 7.05,23.925 C8.3296875,23.9859375 8.7375,23.9953125 11.9953125,23.9953125 C15.253125,23.9953125 15.6609375,23.98125 16.940625,23.925 C18.2203125,23.8640625 19.0921875,23.6625 19.8515625,23.3671875 C20.6390625,23.0625 21.309375,22.65 21.975,21.984375 C22.640625,21.31875 23.053125,20.6484375 23.3578125,19.8609375 C23.653125,19.096875 23.859375,18.225 23.915625,16.95 C23.9765625,15.6703125 23.9859375,15.2625 23.9859375,12.0046875 C23.9859375,8.746875 23.971875,8.3390625 23.915625,7.059375 C23.8546875,5.7796875 23.653125,4.9078125 23.3578125,4.1484375 C23.0625,3.3515625 22.6546875,2.68125 21.984375,2.015625 C21.31875,1.35 20.6484375,0.9375 19.8609375,0.6328125 C19.096875,0.3375 18.225,0.13125 16.95,0.075 C15.665625,0.0140625 15.2578125,0 12,0 Z M12,2.1609375 C15.20625,2.1609375 15.5859375,2.175 16.8515625,2.23125 C18.0234375,2.2875 18.65625,2.4796875 19.078125,2.64375 C19.640625,2.859375 20.0390625,3.121875 20.45625,3.5390625 C20.8734375,3.95625 21.1359375,4.359375 21.3515625,4.9171875 C21.515625,5.3390625 21.7125,5.9765625 21.7640625,7.14375 C21.8203125,8.409375 21.834375,8.7890625 21.834375,11.9953125 C21.834375,15.2015625 21.8203125,15.58125 21.7640625,16.846875 C21.7078125,18.01875 21.515625,18.6515625 21.3515625,19.0734375 C21.1359375,19.6359375 20.8734375,20.034375 20.45625,20.4515625 C20.0390625,20.86875 19.6359375,21.13125 19.078125,21.346875 C18.65625,21.5109375 18.01875,21.7078125 16.8515625,21.759375 C15.5859375,21.815625 15.20625,21.8296875 12,21.8296875 C8.79375,21.8296875 8.4140625,21.815625 7.1484375,21.759375 C5.9765625,21.703125 5.34375,21.5109375 4.921875,21.346875 C4.359375,21.13125 3.9609375,20.86875 3.54375,20.4515625 C3.1265625,20.034375 2.8640625,19.63125 2.6484375,19.0734375 C2.484375,18.6515625 2.2875,18.0140625 2.2359375,16.846875 C2.1796875,15.5859375 2.165625,15.2015625 2.165625,12 C2.165625,8.7984375 2.1796875,8.4140625 2.2359375,7.1484375 C2.2921875,5.9765625 2.484375,5.34375 2.6484375,4.921875 C2.8640625,4.359375 3.1265625,3.9609375 3.54375,3.54375 C3.9609375,3.1265625 4.3640625,2.8640625 4.921875,2.64375 C5.34375,2.4796875 5.98125,2.2828125 7.1484375,2.23125 C8.4140625,2.175 8.79375,2.1609375 12,2.1609375 Z M12,5.8359375 C8.596875,5.8359375 5.8359375,8.596875 5.8359375,12 C5.8359375,15.403125 8.596875,18.1640625 12,18.1640625 C15.403125,18.1640625 18.1640625,15.403125 18.1640625,12 C18.1640625,8.596875 15.403125,5.8359375 12,5.8359375 Z M12,15.9984375 C9.7921875,15.9984375 8.0015625,14.2078125 8.0015625,12 C8.0015625,9.7921875 9.7921875,8.0015625 12,8.0015625 C14.2078125,8.0015625 15.9984375,9.7921875 15.9984375,12 C15.9984375,14.2078125 14.2078125,15.9984375 12,15.9984375 Z M19.846875,5.596875 C19.846875,6.39375 19.2,7.0359375 18.4078125,7.0359375 C17.615625,7.0359375 16.96875,6.3890625 16.96875,5.596875 C16.96875,4.8046875 17.615625,4.1578125 18.4078125,4.1578125 C19.2,4.1578125 19.846875,4.8 19.846875,5.596875 Z" id="Shape"></path>
                        </g>
                    </g>
                </g>
            </g>
        </g>
    </g>
</svg>