<?xml version="1.0" encoding="UTF-8" standalone="no"?>
<svg width="24px" height="24px" viewBox="0 0 24 24" version="1.1" xmlns="http://www.w3.org/2000/svg" xmlns:xlink="http://www.w3.org/1999/xlink">
    <!-- Generator: Sketch 42 (36781) - http://www.bohemiancoding.com/sketch -->
    <title>icon_linkedin_white@2x</title>
    <desc>Created with Sketch.</desc>
    <defs></defs>
    <g id="Page-1" stroke="none" stroke-width="1" fill="none" fill-rule="evenodd">
        <g id="v22" transform="translate(-708.000000, -8716.000000)" fill-rule="nonzero" fill="#FFFFFF">
            <g id="Footer" transform="translate(0.000000, 8350.000000)">
                <g id="Group" transform="translate(622.000000, 366.000000)">
                    <g id="icon_linkedin_white" transform="translate(86.000000, 0.000000)">
                        <g id="Layer_1">
                            <path d="M20.446875,20.4515625 L16.89375,20.4515625 L16.89375,14.8828125 C16.89375,13.5515625 16.865625,11.8453125 15.0421875,11.8453125 C13.190625,11.8453125 12.9046875,13.2890625 12.9046875,14.784375 L12.9046875,20.4515625 L9.3515625,20.4515625 L9.3515625,9 L12.7640625,9 L12.7640625,10.5609375 L12.8109375,10.5609375 C13.2890625,9.6609375 14.446875,8.709375 16.18125,8.709375 C19.78125,8.709375 20.446875,11.08125 20.446875,14.165625 L20.446875,20.4515625 L20.446875,20.4515625 Z M5.3390625,7.434375 C4.1953125,7.434375 3.2765625,6.5109375 3.2765625,5.3671875 C3.2765625,4.228125 4.1953125,3.3046875 5.3390625,3.3046875 C6.478125,3.3046875 7.4015625,4.228125 7.4015625,5.3671875 C7.4015625,6.50625 6.4734375,7.434375 5.3390625,7.434375 Z M7.1203125,20.4515625 L3.5578125,20.4515625 L3.5578125,9 L7.1203125,9 L7.1203125,20.4515625 L7.1203125,20.4515625 Z M22.2234375,0 L1.771875,0 C0.7921875,0 0,0.7734375 0,1.7296875 L0,22.2703125 C0,23.2265625 0.7921875,24 1.771875,24 L22.2234375,24 C23.203125,24 24,23.2265625 24,22.2703125 L24,1.7296875 C24,0.7734375 23.1984375,0 22.2234375,0 L22.2234375,0 Z" id="Shape"></path>
                        </g>
                    </g>
                </g>
            </g>
        </g>
    </g>
</svg>