<?xml version="1.0" encoding="UTF-8" standalone="no"?>
<svg width="24px" height="24px" viewBox="0 0 24 24" version="1.1" xmlns="http://www.w3.org/2000/svg" xmlns:xlink="http://www.w3.org/1999/xlink">
    <!-- Generator: Sketch 42 (36781) - http://www.bohemiancoding.com/sketch -->
    <title>icon_pinterest_white@2x</title>
    <desc>Created with Sketch.</desc>
    <defs></defs>
    <g id="Page-1" stroke="none" stroke-width="1" fill="none" fill-rule="evenodd">
        <g id="v22" transform="translate(-796.000000, -8716.000000)" fill-rule="nonzero" fill="#FFFFFF">
            <g id="Footer" transform="translate(0.000000, 8350.000000)">
                <g id="Group" transform="translate(622.000000, 366.000000)">
                    <g id="icon_pinterest_white" transform="translate(174.000000, 0.000000)">
                        <g id="Layer_1">
                            <path d="M12,0 C5.371875,0 0,5.371875 0,12 C0,17.0859375 3.1640625,21.4265625 7.6265625,23.175 C7.5234375,22.2234375 7.425,20.7703125 7.66875,19.734375 C7.8890625,18.796875 9.075,13.7671875 9.075,13.7671875 C9.075,13.7671875 8.7140625,13.0453125 8.7140625,11.9859375 C8.7140625,10.321875 9.684375,9.0703125 10.884375,9.0703125 C11.9109375,9.0703125 12.403125,9.8390625 12.403125,10.7625 C12.403125,11.79375 11.746875,13.33125 11.409375,14.75625 C11.1234375,15.9515625 12.009375,16.921875 13.1859375,16.921875 C15.3140625,16.921875 16.9546875,14.6765625 16.9546875,11.428125 C16.9546875,8.5546875 14.8921875,6.5484375 11.94375,6.5484375 C8.53125,6.5484375 6.5296875,9.1078125 6.5296875,11.75625 C6.5296875,12.7875 6.9234375,13.89375 7.4203125,14.49375 C7.51875,14.615625 7.5328125,14.71875 7.5046875,14.840625 C7.415625,15.2203125 7.209375,16.0359375 7.171875,16.2 C7.1203125,16.4203125 6.9984375,16.4671875 6.76875,16.359375 C5.2734375,15.6609375 4.33125,13.471875 4.33125,11.709375 C4.3359375,7.9265625 7.0875,4.453125 12.2671875,4.453125 C16.4296875,4.453125 19.6640625,7.4203125 19.6640625,11.38125 C19.6640625,15.515625 17.053125,18.8484375 13.434375,18.8484375 C12.2203125,18.8484375 11.0765625,18.215625 10.6828125,17.4703125 L9.9328125,20.325 C9.6609375,21.365625 8.934375,22.6734375 8.4421875,23.4703125 C9.5671875,23.8171875 10.7578125,24.0046875 11.9953125,24.0046875 C18.61875,24.0046875 23.9953125,18.6328125 23.9953125,12.0046875 C23.9953125,5.3765625 18.6234375,0 12,0 L12,0 Z" id="Shape"></path>
                        </g>
                    </g>
                </g>
            </g>
        </g>
    </g>
</svg>