<?xml version="1.0" encoding="UTF-8" standalone="no"?>
<svg width="24px" height="20px" viewBox="0 0 24 20" version="1.1" xmlns="http://www.w3.org/2000/svg" xmlns:xlink="http://www.w3.org/1999/xlink">
    <!-- Generator: Sketch 42 (36781) - http://www.bohemiancoding.com/sketch -->
    <title>icon_twitter_white@2x</title>
    <desc>Created with Sketch.</desc>
    <defs></defs>
    <g id="Page-1" stroke="none" stroke-width="1" fill="none" fill-rule="evenodd">
        <g id="v22" transform="translate(-622.000000, -8718.000000)" fill-rule="nonzero" fill="#FFFFFF">
            <g id="Footer" transform="translate(0.000000, 8350.000000)">
                <g id="Group" transform="translate(622.000000, 366.000000)">
                    <g id="icon_twitter_white" transform="translate(0.000000, 2.000000)">
                        <g id="Layer_1">
                            <path d="M24,2.353125 C23.1140625,2.7421875 22.171875,3.009375 21.1734375,3.1265625 C22.190625,2.5171875 22.96875,1.5515625 23.3390625,0.403125 C22.3875,0.965625 21.3328125,1.3734375 20.2125,1.59375 C19.3171875,0.6375 18.0375,0.0375 16.6171875,0.0375 C13.8984375,0.0375 11.6953125,2.240625 11.6953125,4.959375 C11.6953125,5.3484375 11.7421875,5.7234375 11.821875,6.084375 C7.7296875,5.878125 4.1015625,3.91875 1.6734375,0.9421875 C1.246875,1.66875 1.0078125,2.5125 1.0078125,3.4171875 C1.0078125,5.128125 1.8796875,6.6328125 3.196875,7.5140625 C2.390625,7.490625 1.63125,7.265625 0.965625,6.9 L0.965625,6.9609375 C0.965625,9.346875 2.6625,11.3390625 4.9171875,11.7890625 C4.5046875,11.9015625 4.06875,11.9578125 3.61875,11.9578125 C3.3046875,11.9578125 2.9953125,11.9296875 2.6953125,11.86875 C3.3234375,13.8234375 5.1421875,15.2484375 7.29375,15.290625 C5.60625,16.6125 3.4828125,17.3953125 1.1765625,17.3953125 C0.778125,17.3953125 0.3890625,17.371875 0,17.3296875 C2.1796875,18.7265625 4.7671875,19.5421875 7.546875,19.5421875 C16.603125,19.5421875 21.5578125,12.0421875 21.5578125,5.5359375 C21.5578125,5.3203125 21.553125,5.109375 21.54375,4.8984375 C22.5046875,4.209375 23.34375,3.3421875 24,2.353125 L24,2.353125 Z" id="Shape"></path>
                        </g>
                    </g>
                </g>
            </g>
        </g>
    </g>
</svg>