<?xml version="1.0" encoding="UTF-8" standalone="no"?>
<svg width="24px" height="24px" viewBox="0 0 24 24" version="1.1" xmlns="http://www.w3.org/2000/svg" xmlns:xlink="http://www.w3.org/1999/xlink">
    <!-- Generator: Sketch 42 (36781) - http://www.bohemiancoding.com/sketch -->
    <title>icon_facebook_white@2x</title>
    <desc>Created with Sketch.</desc>
    <defs></defs>
    <g id="Page-1" stroke="none" stroke-width="1" fill="none" fill-rule="evenodd">
        <g id="v22" transform="translate(-752.000000, -8716.000000)" fill-rule="nonzero" fill="#FFFFFF">
            <g id="Footer" transform="translate(0.000000, 8350.000000)">
                <g id="Group" transform="translate(622.000000, 366.000000)">
                    <g id="icon_facebook_white" transform="translate(130.000000, 0.000000)">
                        <g id="Layer_1">
                            <path d="M22.6292398,0 L1.32397661,0 C0.589473684,0 0,0.589473684 0,1.32397661 L0,22.6339181 C0,23.3637427 0.589473684,23.9532164 1.32397661,23.9532164 L12.7953216,23.9532164 L12.7953216,14.6760234 L9.67017544,14.6760234 L9.67017544,11.0643275 L12.7953216,11.0643275 L12.7953216,8.39298246 C12.7953216,5.3005848 14.6853801,3.61637427 17.445614,3.61637427 C18.7695906,3.61637427 19.9017544,3.70994152 20.2339181,3.75672515 L20.2339181,6.98947368 L18.3157895,6.98947368 C16.8187135,6.98947368 16.528655,7.7005848 16.528655,8.74853801 L16.528655,11.0549708 L20.1076023,11.0549708 L19.6444444,14.671345 L16.528655,14.671345 L16.528655,23.9532164 L22.6339181,23.9532164 C23.3637427,23.9532164 23.9578947,23.3637427 23.9578947,22.6292398 L23.9578947,1.32397661 C23.9532164,0.589473684 23.3637427,0 22.6292398,0" id="Shape"></path>
                        </g>
                    </g>
                </g>
            </g>
        </g>
    </g>
</svg>