<svg id="logo" version="1.1" viewBox="0 0 566 268" xmlns="http://www.w3.org/2000/svg" xmlns:xlink="http://www.w3.org/1999/xlink">
  <g id="dka_logo">
    <path d="M53.095,254.155 L48.035,240.24 L22.965,240.24 L20.32,247.715 C19.745,249.21 19.86,249.9 21.01,251.395 L30.21,264.275 L30.21,266 L0.195,266 L0.195,264.275 L12.04,250.935 C13.19,249.555 13.535,248.98 14.11,247.485 L30.67,201.83 C31.36,199.99 31.245,199.415 30.555,197.69 L26.07,186.765 L26.07,185.155 L50.335,185.155 L75.175,251.855 C75.75,253.465 76.095,254.27 76.9,255.42 L82.995,264.275 L82.995,266 L46.425,266 L46.425,264.275 L52.75,256.685 C53.555,255.765 53.44,255.19 53.095,254.155 Z M35.385,205.74 L24.92,234.72 L45.965,234.72 L35.385,205.74 Z M117.73,254.73 C117.615,259.905 112.555,262.205 106.805,262.205 C104.85,262.205 103.24,262.09 101.975,261.86 C101.055,261.63 100.71,261.285 100.25,260.365 L91.5100001,246.565 L90.0150001,246.565 L83.6900001,263.585 C90.0150001,266 98.2950001,267.38 106,267.38 C122.56,267.38 134.06,260.595 134.06,247.14 C134.06,238.4 127.62,233.915 120.145,231.5 L110.6,228.28 C105.54,226.67 101.4,224.37 101.4,220 C101.4,215.63 105.425,213.1 110.945,213.1 C112.21,213.1 113.36,213.1 114.165,213.215 C114.97,213.33 115.2,213.56 115.66,214.365 L124.4,227.36 L126.01,227.36 L132.105,210.8 C124.63,208.615 116.695,207.925 110.255,207.925 C95.1900001,207.925 85.4150001,215.285 85.4150001,226.555 C85.4150001,236.56 91.9700001,241.965 99.3300001,244.38 L108.185,247.255 C114.51,249.325 117.73,250.935 117.73,254.73 Z M172.13,254.73 C172.015,259.905 166.955,262.205 161.205,262.205 C159.25,262.205 157.64,262.09 156.375,261.86 C155.455,261.63 155.11,261.285 154.65,260.365 L145.91,246.565 L144.415,246.565 L138.09,263.585 C144.415,266 152.695,267.38 160.4,267.38 C176.96,267.38 188.46,260.595 188.46,247.14 C188.46,238.4 182.02,233.915 174.545,231.5 L165,228.28 C159.94,226.67 155.8,224.37 155.8,220 C155.8,215.63 159.825,213.1 165.345,213.1 C166.61,213.1 167.76,213.1 168.565,213.215 C169.37,213.33 169.6,213.56 170.06,214.365 L178.8,227.36 L180.41,227.36 L186.505,210.8 C179.03,208.615 171.095,207.925 164.655,207.925 C149.59,207.925 139.815,215.285 139.815,226.555 C139.815,236.56 146.37,241.965 153.73,244.38 L162.585,247.255 C168.91,249.325 172.13,250.935 172.13,254.73 Z M223.77,267.38 C204.22,267.38 192.49,256.685 192.49,238.055 C192.49,219.195 204.565,207.925 224.345,207.925 C243.665,207.925 255.395,218.735 255.395,237.25 C255.395,255.995 243.32,267.38 223.77,267.38 Z M224.115,261.515 C230.325,261.515 233.775,254.27 233.775,237.94 C233.775,221.265 230.21,213.79 223.77,213.79 C217.56,213.79 214.11,220.805 214.11,237.365 C214.11,254.155 217.675,261.515 224.115,261.515 Z M279.895,232.88 C279.895,221.38 284.15,213.445 291.165,213.445 L292.2,213.445 C293.235,213.445 293.58,213.905 294.155,214.94 L302.435,231.04 L304.16,231.04 L311.635,211.49 C304.735,208.845 297.95,207.925 292.2,207.925 C273.915,207.925 259.195,217.355 259.195,238.515 C259.195,257.835 271.615,267.38 287.025,267.38 C299.675,267.38 308.185,260.71 311.52,249.785 L310.025,248.865 C306.805,252.89 301.975,254.96 296.685,254.96 C287.945,254.96 279.895,249.095 279.895,232.88 Z M320.15,190.79 C320.15,197 324.98,201.255 330.73,201.255 C336.48,201.255 341.195,197 341.195,190.79 C341.195,184.465 336.48,180.325 330.73,180.325 C324.98,180.325 320.15,184.465 320.15,190.79 Z M321.3,256.685 C321.3,257.95 321.3,258.295 320.38,259.1 L314.745,264.39 L314.745,266 L347.52,266 L347.52,264.39 L341.77,259.1 C340.965,258.295 340.85,257.95 340.85,256.685 L340.85,209.305 L314.745,209.305 L314.745,210.915 L320.495,217.7 C321.185,218.505 321.3,218.85 321.3,220.23 L321.3,256.685 Z M374.320001,231.96 C377.770001,231.96 381.335001,232.42 384.325001,233.34 C384.325001,229.315 384.440001,225.405 384.440001,224.255 C384.440001,218.16 381.565001,213.33 375.355001,213.33 C375.125001,213.33 374.205001,213.33 373.975001,213.445 C373.055001,213.445 372.365001,213.675 371.790001,214.595 L362.475001,229.2 L360.750001,229.2 L354.310001,211.95 C361.555001,209.075 368.685001,207.925 376.275001,207.925 C394.905001,207.925 403.415001,213.675 403.415001,228.97 C403.415001,235.41 402.610001,245.53 402.610001,251.165 C402.610001,255.305 404.105001,256.915 406.060001,256.915 C407.325001,256.915 408.360001,256.225 409.050001,255.19 L410.430001,256.11 C409.165001,262.55 403.990001,267.38 396.285001,267.38 C389.270001,267.38 384.555001,263.355 383.980001,257.145 C380.530001,263.355 374.435001,267.38 367.075001,267.38 C357.990001,267.38 350.515001,261.4 350.515001,251.395 C350.515001,239.78 360.520001,231.96 374.320001,231.96 Z M375.930001,256.8 C379.495001,256.8 382.370001,254.73 383.980001,251.05 C383.980001,247.6 383.980001,243.115 384.210001,238.4 C382.715001,237.94 381.220001,237.71 379.840001,237.71 C373.285001,237.71 368.570001,241.85 368.570001,248.405 C368.570001,253.58 371.560001,256.8 375.930001,256.8 Z M436.310001,189.18 L418.830001,207.465 C417.220001,209.075 416.760001,209.305 415.035001,209.305 L411.125001,209.305 L411.125001,215.86 L418.255001,215.86 L418.255001,250.59 C418.255001,261.63 423.775001,267.38 434.700001,267.38 C445.395001,267.38 451.260001,261.86 452.525001,253.81 L450.915001,253.235 C449.420001,255.535 447.005001,256.685 444.130001,256.685 C440.565001,256.685 437.690001,255.075 437.690001,249.44 L437.690001,215.86 L451.490001,215.86 L451.490001,209.305 L437.690001,209.305 L437.690001,189.18 L436.310001,189.18 Z M510.720001,238.63 L474.955001,238.63 C475.760001,250.705 483.235001,255.305 491.630001,255.305 C498.415001,255.305 504.395001,253.235 508.880001,247.83 L510.490001,248.635 C506.925001,260.825 498.070001,267.38 483.810001,267.38 C467.250001,267.38 454.600001,257.835 454.600001,238.055 C454.600001,217.815 467.480001,207.925 483.695001,207.925 C498.990001,207.925 510.720001,215.285 510.720001,234.145 L510.720001,238.63 Z M483.465001,213.56 C478.060001,213.56 474.955001,218.85 474.725001,233.11 L491.975001,233.11 C491.860001,218.85 489.100001,213.56 483.465001,213.56 Z M549.135001,254.73 C549.020001,259.905 543.960001,262.205 538.210001,262.205 C536.255001,262.205 534.645001,262.09 533.380001,261.86 C532.460001,261.63 532.115001,261.285 531.655001,260.365 L522.915001,246.565 L521.420001,246.565 L515.095001,263.585 C521.420001,266 529.700001,267.38 537.405001,267.38 C553.965001,267.38 565.465001,260.595 565.465001,247.14 C565.465001,238.4 559.025001,233.915 551.550001,231.5 L542.005001,228.28 C536.945001,226.67 532.805001,224.37 532.805001,220 C532.805001,215.63 536.830001,213.1 542.350001,213.1 C543.615001,213.1 544.765001,213.1 545.570001,213.215 C546.375001,213.33 546.605001,213.56 547.065001,214.365 L555.805001,227.36 L557.415001,227.36 L563.510001,210.8 C556.035001,208.615 548.100001,207.925 541.660001,207.925 C526.595001,207.925 516.820001,215.285 516.820001,226.555 C516.820001,236.56 523.375001,241.965 530.735001,244.38 L539.590001,247.255 C545.915001,249.325 549.135001,250.935 549.135001,254.73 Z" id="Associates" fill="#FFB7AE"></path>
    <g id="Dunning" fill="#28292B">
      <path d="M33.9086669,80.5920857 C32.4078633,80.5920857 31.9458635,80.2452386 31.9458635,78.7422347 L31.9458635,12.1475989 C31.9458635,10.7595142 32.4078633,10.4126672 33.793167,10.4126672 L37.0264699,10.4126672 C51.5794644,10.4126672 57.3551579,22.3217794 57.3551579,44.7512227 C57.3551579,69.4922832 50.0786607,80.5920857 36.79547,80.5920857 L33.9086669,80.5920857 Z M82.5341483,43.9419129 C82.5341483,19.5470029 68.7896535,4.86381065 41.1851641,4.86381065 L0.644679693,4.86381065 L0.644679693,6.59804596 L8.72967659,14.4599127 C9.42267632,15.2692225 9.53817628,15.6160696 9.53817628,16.7722264 L9.53817628,74.2332229 C9.53817628,75.3893798 9.42267632,75.7362268 8.72967659,76.5455366 L0.644679693,84.4074034 L0.644679693,86.1416387 L38.0666653,86.1416387 C64.2851553,86.1416387 82.5341483,71.9209092 82.5341483,43.9419129 L82.5341483,43.9419129 Z" id="Fill-1"></path>
      <path d="M91.1952534,40.0105616 C91.1952534,43.2478009 90.9642534,57.237299 90.9642534,62.6712363 C90.9642534,79.4355109 96.3927514,87.5293055 109.444246,87.5293055 C118.799743,87.5293055 125.61424,83.0202937 129.541239,74.9271956 L129.541239,86.1412208 L154.258229,86.1412208 L154.258229,84.5226012 L148.829731,78.6262011 C147.906427,77.8168913 147.906427,77.4700442 147.906427,76.1989682 L147.906427,29.1426871 L121.571742,29.1426871 L121.571742,30.7620031 L127.346739,37.467713 C128.155239,38.3926385 128.270739,38.8551012 128.270739,40.0105616 L128.270739,69.6081775 C125.84524,74.1178858 122.495046,76.8919658 118.338439,76.8919658 C111.638746,76.8919658 110.599246,69.7237932 110.599246,60.7064661 C110.599246,57.237299 110.714746,42.6697224 110.830246,29.1426871 L84.6117559,29.1426871 L84.6117559,30.7620031 L90.2712537,37.467713 C91.0797534,38.3926385 91.1952534,38.8551012 91.1952534,40.0105616" id="Fill-4"></path>
      <path d="M190.292685,84.5227405 L184.517687,79.2044188 C183.709187,78.395109 183.593687,78.048262 183.593687,76.7771859 L183.593687,45.5609504 C186.250186,40.7043951 189.715185,38.3927778 193.756987,38.3927778 C199.070681,38.3927778 202.305376,42.0917833 202.305376,52.3822759 C202.305376,60.128527 201.958876,74.2336408 201.958876,76.7771859 C201.958876,78.048262 201.958876,78.395109 201.03418,79.2044188 L195.374683,84.5227405 L195.374683,86.1413601 L228.29217,86.1413601 L228.29217,84.5227405 L222.517172,79.2044188 C221.708673,78.395109 221.708673,78.048262 221.708673,76.8921051 C221.708673,73.4236345 221.939672,58.7404422 221.939672,53.6540485 C221.939672,36.5422303 215.934371,27.7554381 202.536376,27.7554381 C192.025184,27.7554381 186.019186,33.3049911 182.323188,40.2419323 L182.323188,29.1428263 L157.375197,29.1428263 L157.375197,30.7621424 L163.149499,37.5827715 C163.842499,38.3927778 163.957999,38.7396249 163.957999,40.1263166 L163.957999,76.7771859 C163.957999,78.048262 163.957999,78.395109 163.033999,79.2044188 L157.375197,84.5227405 L157.375197,86.1413601 L190.292685,86.1413601 L190.292685,84.5227405 Z" id="Fill-6"></path>
      <path d="M262.710461,84.5227405 L256.935463,79.2044188 C256.126964,78.395109 256.011464,78.048262 256.011464,76.7771859 L256.011464,45.5609504 C258.667963,40.7043951 262.132961,38.3927778 266.17546,38.3927778 C271.488458,38.3927778 274.722456,42.0917833 274.722456,52.3822759 C274.722456,60.128527 274.375957,74.2336408 274.375957,76.7771859 C274.375957,78.048262 274.375957,78.395109 273.451957,79.2044188 L267.792459,84.5227405 L267.792459,86.1413601 L300.709946,86.1413601 L300.709946,84.5227405 L294.934949,79.2044188 C294.126449,78.395109 294.126449,78.048262 294.126449,76.8921051 C294.126449,73.4236345 294.357449,58.7404422 294.357449,53.6540485 C294.357449,36.5422303 288.352147,27.7554381 274.953456,27.7554381 C264.44296,27.7554381 258.436963,33.3049911 254.740964,40.2419323 L254.740964,29.1428263 L229.792278,29.1428263 L229.792278,30.7621424 L235.567971,37.5827715 C236.260971,38.3927778 236.376471,38.7396249 236.376471,40.1263166 L236.376471,76.7771859 C236.376471,78.048262 236.376471,78.395109 235.452471,79.2044188 L229.792278,84.5227405 L229.792278,86.1413601 L262.710461,86.1413601 L262.710461,84.5227405 Z" id="Fill-8"></path>
      <path d="M318.265731,21.0498675 C324.041425,21.0498675 328.776227,16.7720871 328.776227,10.52884 C328.776227,4.16997723 324.041425,0.0078125 318.265731,0.0078125 C312.490733,0.0078125 307.640431,4.16997723 307.640431,10.52884 C307.640431,16.7720871 312.490733,21.0498675 318.265731,21.0498675" id="Fill-10"></path>
      <path d="M335.129003,84.5227405 L329.354005,79.2044188 C328.545505,78.395109 328.430005,78.048262 328.430005,76.7771859 L328.430005,29.1428263 L302.21082,29.1428263 L302.21082,30.7621424 L307.986513,37.5827715 C308.679513,38.3927778 308.795013,38.7396249 308.795013,40.1263166 L308.795013,76.7771859 C308.795013,78.048262 308.795013,78.395109 307.871013,79.2044188 L302.21082,84.5227405 L302.21082,86.1413601 L335.129003,86.1413601 L335.129003,84.5227405 Z" id="Fill-12"></path>
      <path d="M370.817098,84.5227405 L365.0421,79.2044188 C364.2336,78.395109 364.1181,78.048262 364.1181,76.7771859 L364.1181,45.5609504 C366.774599,40.7043951 370.239598,38.3927778 374.282096,38.3927778 C379.595094,38.3927778 382.829093,42.0917833 382.829093,52.3822759 C382.829093,60.128527 382.482593,74.2336408 382.482593,76.7771859 C382.482593,78.048262 382.482593,78.395109 381.558593,79.2044188 L375.899096,84.5227405 L375.899096,86.1413601 L408.816583,86.1413601 L408.816583,84.5227405 L403.041585,79.2044188 C402.233085,78.395109 402.233085,78.048262 402.233085,76.8921051 C402.233085,73.4236345 402.464085,58.7404422 402.464085,53.6540485 C402.464085,36.5422303 396.458783,27.7554381 383.060093,27.7554381 C372.549597,27.7554381 366.543599,33.3049911 362.847601,40.2419323 L362.847601,29.1428263 L337.898914,29.1428263 L337.898914,30.7621424 L343.674608,37.5827715 C344.367608,38.3927778 344.483108,38.7396249 344.483108,40.1263166 L344.483108,76.7771859 C344.483108,78.048262 344.483108,78.395109 343.559108,79.2044188 L337.898914,84.5227405 L337.898914,86.1413601 L370.817098,86.1413601 L370.817098,84.5227405 Z" id="Fill-14"></path>
      <path d="M487.355231,65.2151297 C481.002733,65.2151297 476.382039,70.1866042 476.382039,75.9673886 C476.382039,80.592016 479.039234,84.6385651 485.507231,86.0259533 C486.777731,86.3728004 487.239731,86.9508788 487.239731,88.5694984 C487.239731,94.4658985 482.619037,100.477914 475.34254,105.103238 L475.920039,106.952393 C489.433534,104.177616 498.674226,92.5004318 498.674226,78.9733964 C498.674226,69.8397571 493.592228,65.2151297 487.355231,65.2151297" id="Fill-16"></path>
      <path d="M439.07785,60.7062572 C433.879656,60.7062572 430.299853,56.5433959 430.299853,46.8323747 C430.299853,37.3518884 433.764156,33.6514899 439.07785,33.6514899 C444.390848,33.6514899 447.85515,37.4675041 447.85515,46.9479904 C447.85515,56.5433959 444.275348,60.7062572 439.07785,60.7062572 L439.07785,60.7062572 Z M458.712842,30.4149471 C457.557843,31.4554883 456.979647,31.4554883 455.824647,30.9930256 C451.898345,29.4900216 446.700847,27.7550899 438.73135,27.7550899 C422.445856,27.7550899 412.165664,34.9232625 412.165664,47.294141 C412.165664,56.7746273 418.287162,62.3241803 425.794659,64.7528062 C417.709662,66.9495043 411.934664,72.2678259 411.934664,79.0891514 C411.934664,85.1004706 416.670858,89.3789476 423.947355,90.9975672 C423.835334,91.0212475 423.72888,91.0498032 423.61825,91.0748765 C425.034168,91.2963571 426.697089,91.5303744 428.318959,91.6996191 C428.324525,91.6968331 428.330092,91.6933507 428.336354,91.6905648 C428.502646,91.7121557 428.676592,91.7316571 428.850537,91.7518551 C429.716091,91.8347362 430.561467,91.8953299 431.339353,91.9217962 L448.31715,92.4998746 C455.131648,92.731106 457.442343,94.9285005 457.442343,98.3969711 C457.442343,102.936628 453.143796,106.001837 447.238687,107.385046 C447.518392,108.690946 447.745913,110.258026 447.85515,112.14897 C447.876024,112.500692 447.871849,112.825948 447.870458,113.155383 C461.159215,109.996846 470.955142,101.343778 470.955142,89.6101789 C470.955142,79.2047671 463.101145,74.5801396 450.627845,74.5801396 L437.57635,74.5801396 C429.837853,74.5801396 427.065158,72.7302886 427.065158,70.0704313 C427.065158,68.3368925 428.451854,66.8338886 430.415353,65.9089631 C433.186656,66.2558101 436.190351,66.4870415 439.30885,66.4870415 C455.824647,66.4870415 465.989339,59.7813317 465.989339,47.640988 C465.989339,41.9758194 463.678644,38.2768139 460.445341,35.6176531 L472.919337,35.6176531 L472.919337,18.5058349 L471.301641,18.5058349 L458.712842,30.4149471 Z" id="Fill-33"></path>
    </g>
    <g id="Kruger" transform="translate(0.000000, 94.000000)" fill="#28292B">
      <path d="M75.373638,71.23823 L50.7721475,30.078349 L60.8206436,19.442403 C63.3609469,16.782545 64.1694466,16.088851 67.5189453,13.89285 L83.2269393,3.1405908 L83.2269393,1.405659 L48.5769526,1.405659 L48.5769526,3.1405908 L55.27595,13.777234 C55.9689497,14.932694 56.0844497,15.510773 54.9294501,16.782545 L31.9456547,41.640615 L57.4711449,82.684183 L85.0749385,82.684183 L85.0749385,80.949252 L79.4161365,76.209705 C77.6829414,74.590389 76.8751375,73.665463 75.373638,71.23823" id="Fill-19"></path>
      <path d="M32.8690977,11.002249 L40.9540946,3.1403818 L40.9540946,1.4061465 L0.645305898,1.4061465 L0.645305898,3.1403818 L8.72960701,11.002249 C9.42260674,11.811558 9.5381067,12.158405 9.5381067,13.314562 L9.5381067,70.775559 C9.5381067,71.931019 9.42260674,72.277866 8.72960701,73.087873 L0.645305898,80.949739 L0.645305898,82.683975 L40.9540946,82.683975 L40.9540946,80.949739 L32.8690977,73.087873 C32.1767938,72.277866 31.9457939,71.931019 31.9457939,70.775559 L31.9457939,41.640406 L31.9457939,13.314562 C31.9457939,12.158405 32.1767938,11.811558 32.8690977,11.002249" id="Fill-21"></path>
      <path d="M126.084937,24.297913 C118.92394,24.297913 114.072246,29.500619 110.723443,38.749874 L110.723443,25.685302 L85.7747569,25.685302 L85.7747569,27.303921 L91.5504505,34.125247 C92.2434502,34.934556 92.3589502,35.2821 92.3589502,36.668792 L92.3589502,73.318965 C92.3589502,74.590737 92.3589502,74.937584 91.4349506,75.746894 L85.7747569,81.065216 L85.7747569,82.683835 L124.698938,82.683835 L124.698938,81.065216 L113.610246,74.128274 C112.340443,73.318965 111.993943,72.856502 111.993943,71.237882 L111.993943,43.836964 C112.686942,41.871498 113.841246,39.906031 114.880746,38.749874 C115.458941,38.05618 115.920941,37.824949 116.498441,37.824949 C116.960441,37.824949 117.306941,38.05618 117.88444,38.634258 L126.893437,46.727357 L128.509741,46.727357 L134.516434,28.692006 C132.437435,25.685302 129.43374,24.297913 126.084937,24.297913" id="Fill-23"></path>
      <path d="M198.853388,72.740677 L198.853388,25.685093 L172.518703,25.685093 L172.518703,27.304409 L178.2937,34.010119 C179.1022,34.935044 179.2177,35.397507 179.2177,36.552967 L179.2177,66.150583 C176.792201,70.660291 173.442702,73.434371 169.2854,73.434371 C162.585706,73.434371 161.546207,66.266199 161.546207,57.248175 C161.546207,53.779705 161.661707,39.212128 161.777207,25.685093 L135.558717,25.685093 L135.558717,27.304409 L141.218215,34.010119 C142.026714,34.935044 142.142214,35.397507 142.142214,36.552967 C142.142214,39.790206 141.911214,53.779705 141.911214,59.213642 C141.911214,75.977916 147.339712,84.071711 160.391207,84.071711 C169.746704,84.071711 176.561201,79.562003 180.488199,71.469601 L180.488199,82.683626 L205.20519,82.683626 L205.20519,81.065007 L199.776692,75.168607 C198.853388,74.359297 198.853388,74.01245 198.853388,72.740677" id="Fill-25"></path>
      <path d="M235.690499,57.248106 C230.493001,57.248106 226.912502,53.085941 226.912502,43.374223 C226.912502,33.894433 230.377501,30.194035 235.690499,30.194035 C241.003497,30.194035 244.468495,34.010049 244.468495,43.489839 C244.468495,53.085941 240.887997,57.248106 235.690499,57.248106 L235.690499,57.248106 Z M224.949003,88.23311 C225.873003,88.348725 226.912502,88.464341 227.952002,88.464341 L244.930495,89.042419 C251.744993,89.273651 254.055688,91.471045 254.055688,94.938819 C254.055688,101.297682 245.623495,104.766849 236.152499,104.766849 C226.104002,104.766849 220.098005,100.951532 220.098005,95.170051 C220.098005,92.164739 221.830504,89.620498 224.949003,88.23311 L224.949003,88.23311 Z M255.325491,26.957492 C254.171187,27.998033 253.592992,27.998033 252.437992,27.53557 C248.510994,26.032566 243.313496,24.297635 235.343999,24.297635 C219.058505,24.297635 208.779009,31.465807 208.779009,43.836686 C208.779009,53.317172 214.900507,58.866725 222.408004,61.295351 C214.323007,63.492049 208.548009,68.810371 208.548009,75.631696 C208.548009,81.643015 213.283507,85.921492 220.560005,87.539416 C212.937008,89.158035 207.62401,92.742818 207.62401,98.06114 C207.62401,106.6167 220.675505,111.0094 233.034,111.0094 C251.744993,111.0094 267.568487,101.067147 267.568487,86.152724 C267.568487,75.747312 259.71449,71.122684 247.24119,71.122684 L234.188999,71.122684 C226.450502,71.122684 223.678503,69.272833 223.678503,66.612976 C223.678503,64.878741 225.065199,63.376433 227.028002,62.451508 C229.800001,62.798355 232.803,63.029586 235.921499,63.029586 C252.437992,63.029586 262.601988,56.323876 262.601988,44.183533 C262.601988,38.518364 260.291989,34.819359 257.057991,32.160198 L269.532682,32.160198 L269.532682,15.04838 L267.914986,15.04838 L255.325491,26.957492 Z" id="Fill-27"></path>
      <path d="M290.091326,49.617401 C290.322326,35.281752 293.440129,29.962734 298.869322,29.962734 C304.52882,29.962734 307.300123,35.281752 307.415623,49.617401 L290.091326,49.617401 Z M299.100322,24.297565 C282.814829,24.297565 269.878834,34.241211 269.878834,54.589572 C269.878834,74.474773 282.583829,84.071572 299.215822,84.071572 C313.537817,84.071572 322.430618,77.481478 326.011812,65.225518 L324.394813,64.416208 C319.890314,69.850842 313.884317,71.931228 307.069123,71.931228 C298.638323,71.931228 291.130825,67.306601 290.322326,55.16765 L326.242812,55.16765 L326.242812,50.657942 C326.242812,31.697666 314.461816,24.297565 299.100322,24.297565 L299.100322,24.297565 Z" id="Fill-29"></path>
      <path d="M368.27582,24.297913 C361.114823,24.297913 356.263825,29.500619 352.914326,38.749874 L352.914326,25.685302 L327.96564,25.685302 L327.96564,27.303921 L333.741333,34.125247 C334.434333,34.934556 334.549833,35.2821 334.549833,36.668792 L334.549833,73.318965 C334.549833,74.590737 334.549833,74.937584 333.625833,75.746894 L327.96564,81.065216 L327.96564,82.683835 L366.889821,82.683835 L366.889821,81.065216 L355.801825,74.128274 C354.531325,73.318965 354.184826,72.856502 354.184826,71.237882 L354.184826,43.836964 C354.877825,41.871498 356.032825,39.906031 357.072324,38.749874 C357.649824,38.05618 358.111824,37.824949 358.689324,37.824949 C359.151324,37.824949 359.497824,38.05618 360.075323,38.634258 L369.08432,46.727357 L370.701319,46.727357 L376.707317,28.692006 C374.628318,25.685302 371.625319,24.297913 368.27582,24.297913" id="Fill-31"></path>
      <path d="M419.67337,75.400117 C411.472873,75.400117 404.427376,69.041254 404.427376,60.370077 C404.427376,54.242446 406.968375,49.501506 409.97207,47.189889 L432.148061,70.428642 C428.451367,73.781497 424.178564,75.400117 419.67337,75.400117 L419.67337,75.400117 Z M422.791869,5.683857 C427.758367,5.683857 432.148061,9.499175 432.148061,17.707889 C432.148061,23.488673 430.068366,29.500689 424.063064,34.009701 C416.671067,26.494681 413.898372,21.176359 413.898372,15.626806 C413.898372,9.961638 417.364067,5.683857 422.791869,5.683857 L422.791869,5.683857 Z M470.49335,60.138846 C469.454547,65.341552 466.682548,68.231944 462.409049,68.231944 C458.827855,68.231944 455.363552,66.035246 450.742858,61.410618 C453.862053,57.364069 456.748856,53.31752 459.058855,49.155356 C460.79205,46.264963 462.293549,44.76196 464.371853,42.680181 L471.99485,34.934626 L471.99485,33.316007 L443.119861,33.316007 L443.119861,34.934626 L452.013358,45.802501 C453.053553,47.074273 452.938053,47.999199 452.128858,49.501506 C450.627358,52.392595 448.894859,54.93614 446.932055,57.595301 L427.296367,37.015709 C435.843364,33.431622 444.85236,27.072759 444.85236,17.014195 C444.85236,7.071246 435.727864,0.24992 422.791869,0.24992 C407.892375,0.24992 397.843878,9.846022 397.843878,23.719905 C397.843878,29.616305 400.038378,36.322711 407.083875,44.183881 C396.227575,47.305505 388.720078,54.358062 388.720078,64.763473 C388.720078,76.209426 399.114378,83.955677 412.858873,83.955677 C423.138369,83.955677 430.183866,80.602823 436.536364,74.590807 C443.235361,81.065285 448.318055,83.955677 455.017052,83.955677 C465.526852,83.955677 472.91885,77.134352 472.91885,66.150862 C472.91885,64.300314 472.68785,62.335544 472.11035,60.138846 L470.49335,60.138846 Z" id="Fill-35"></path>
    </g>
  </g>
</svg>
